# xmcd CD database file
#
# Track frame offsets:
#	183
#	19250
#	36353
#	50745
#	67725
#	101668
#	125800
#	139748
#	167178
#	182290
#
# Disc length: 2600 seconds
#
# Revision: 7
# Processed by: cddbd v1.5.1PL0 Copyright (c) Steve Scherf et al.
# Submitted via: cdripper 1.0.7
#
DISCID=8b0a260a
DTITLE=The Sidemen - The Sidemen
DYEAR=1993
DGENRE=Blues
TTITLE0=Rollin' And Tumblin'
TTITLE1=She's Into Sumething
TTITLE2=Funky Butt
TTITLE3=Waitin'
TTITLE4=Don't Take Advantage - Watch Me Move
TTITLE5=Down The Road
TTITLE6=Divin' Duck
TTITLE7=Champagne And Reefer
TTITLE8=Buzzard Luck
TTITLE9=Mississippi River Blues
EXTD=YEAR: 1993
EXTT0=
EXTT1=
EXTT2=
EXTT3=
EXTT4=
EXTT5=
EXTT6=
EXTT7=
EXTT8=
EXTT9=
PLAYORDER=
